<?xml version="1.0" standalone="no"?>
<!DOCTYPE svg PUBLIC "-//W3C//DTD SVG 20010904//EN"
 "http://www.w3.org/TR/2001/REC-SVG-20010904/DTD/svg10.dtd">
<svg version="1.0" xmlns="http://www.w3.org/2000/svg"
 width="700.000000pt" height="700.000000pt" viewBox="0 0 700.000000 700.000000"
 preserveAspectRatio="xMidYMid meet">
<metadata>
Created by potrace 1.11, written by Peter Selinger 2001-2013
</metadata>
<g transform="translate(0.000000,700.000000) scale(0.100000,-0.100000)"
fill="#000000" stroke="none">
<path d="M0 3500 l0 -3500 3500 0 3500 0 0 3500 0 3500 -1480 0 c-1444 0
-1480 0 -1489 -19 -15 -26 -124 -107 -193 -142 -196 -99 -483 -117 -699 -44
-103 35 -186 83 -255 148 l-62 57 -1411 0 -1411 0 0 -3500z m4970 1683 l0
-568 595 -330 c328 -181 594 -335 593 -340 -7 -27 -211 -385 -220 -385 -5 0
-503 274 -1106 609 -603 334 -1150 637 -1215 673 l-119 66 -121 -68 c-144 -80
-1499 -828 -1702 -940 -77 -42 -247 -137 -379 -209 -131 -73 -239 -131 -241
-129 -23 28 -214 393 -208 399 8 8 163 94 1318 734 1227 680 1327 735 1335
735 5 0 206 -110 448 -245 242 -135 447 -248 456 -251 15 -6 16 31 16 405 l0
411 275 0 275 0 0 -567z m-1099 -659 c1076 -580 1715 -926 1722 -933 4 -4 5
-533 1 -1174 l-7 -1167 -814 0 -813 0 0 730 0 730 -460 0 -460 0 0 -730 0
-730 -820 0 -820 0 0 1165 c0 1098 1 1165 18 1174 184 106 2062 1129 2073
1130 9 1 180 -87 380 -195z"/>
<path d="M2535 4002 l-950 -518 -3 -1027 -2 -1027 640 0 640 0 0 730 0 730
635 0 635 0 0 -730 0 -730 645 0 645 0 -2 1031 -3 1030 -955 515 c-525 283
-959 514 -965 514 -5 0 -437 -234 -960 -518z"/>
</g>
</svg>
